<svg xmlns="http://www.w3.org/2000/svg" xmlns:xlink="http://www.w3.org/1999/xlink" width="24" height="24" preserveAspectRatio="xMidYMid meet" viewBox="0 0 24 24" style="-ms-transform: rotate(360deg); -webkit-transform: rotate(360deg); transform: rotate(360deg);"><path d="M20 2H8a2 2 0 0 0-2 2v12a2 2 0 0 0 2 2h12a2 2 0 0 0 2-2V4a2 2 0 0 0-2-2m0 14H8V4h12m-7.5 11a2.5 2.5 0 0 0 2.5-2.5V7h3V5h-4v5.5c-.42-.31-.93-.5-1.5-.5a2.5 2.5 0 0 0-2.5 2.5a2.5 2.5 0 0 0 2.5 2.5M4 6H2v14a2 2 0 0 0 2 2h14v-2H4" fill="#626262"/><rect x="0" y="0" width="24" height="24" fill="rgba(0, 0, 0, 0)" /></svg>